<?xml version="1.0" standalone="no"?>
<!DOCTYPE svg PUBLIC "-//W3C//DTD SVG 20010904//EN"
 "http://www.w3.org/TR/2001/REC-SVG-20010904/DTD/svg10.dtd">
<svg version="1.0" xmlns="http://www.w3.org/2000/svg"
 width="32.000000pt" height="31.000000pt" viewBox="0 0 32.000000 31.000000"
 preserveAspectRatio="xMidYMid meet">

<g transform="translate(0.000000,31.000000) scale(0.100000,-0.100000)"
fill="#000000" stroke="none">
<path d="M116 274 c-16 -15 -37 -24 -47 -21 -23 6 -59 -19 -59 -42 0 -10 8
-25 18 -34 15 -13 21 -14 42 -3 19 9 25 19 24 44 -2 36 15 42 34 12 16 -26 48
-26 64 0 19 30 36 24 34 -12 -1 -25 5 -35 24 -44 21 -11 27 -10 42 3 10 9 18
24 18 34 0 23 -36 48 -59 42 -10 -2 -31 7 -48 21 -38 32 -50 32 -87 0z m58
-16 c9 -35 8 -38 -14 -38 -11 0 -20 3 -20 8 0 19 13 52 20 52 4 0 10 -10 14
-22z m-102 -53 c2 -14 -3 -21 -19 -23 -26 -4 -27 -3 -13 34 11 29 26 24 32
-11z m213 -2 c5 -19 2 -23 -14 -23 -26 0 -31 10 -20 39 10 26 22 20 34 -16z"/>
<path d="M140 193 c-34 -6 -46 -19 -33 -35 6 -7 13 -22 17 -33 3 -13 4 -11 2
6 -3 25 -1 26 26 19 26 -8 28 -7 28 21 0 16 -3 28 -7 28 -5 -1 -19 -4 -33 -6z"/>
<path d="M26 131 c-9 -10 -16 -25 -16 -34 0 -21 37 -46 59 -40 10 2 31 -7 48
-21 38 -32 48 -32 86 0 17 14 38 23 48 21 23 -6 59 19 59 42 0 10 -8 25 -18
34 -15 13 -21 14 -42 3 -19 -9 -25 -19 -24 -44 2 -36 -15 -42 -34 -12 -16 26
-48 26 -64 0 -19 -30 -39 -25 -32 8 9 43 -42 74 -70 43z m46 -36 c5 -24 -7
-36 -28 -28 -15 5 -5 53 11 53 7 0 15 -11 17 -25z m210 0 c5 -24 -7 -36 -28
-28 -15 5 -5 53 11 53 7 0 15 -11 17 -25z m-112 -29 c0 -8 3 -21 6 -30 4 -12
0 -16 -16 -16 -16 0 -20 4 -16 16 3 9 6 22 6 30 0 8 5 14 10 14 6 0 10 -6 10
-14z"/>
</g>
</svg>
